<?xml version="1.0" encoding="UTF-8"?>
<svg xmlns="http://www.w3.org/2000/svg" xmlns:xlink="http://www.w3.org/1999/xlink" width="25px" height="29px" viewBox="0 0 25 28" version="1.1">
<g id="surface1">
<path style=" stroke:none;fill-rule:nonzero;fill:rgb(0%,0%,0%);fill-opacity:1;" d="M 24.476562 15.234375 L 15.546875 23.984375 C 15.199219 24.332031 14.742188 24.5 14.285156 24.5 C 13.828125 24.5 13.371094 24.328125 13.023438 23.988281 C 12.324219 23.304688 12.324219 22.195312 13.023438 21.511719 L 18.90625 15.75 L 1.785156 15.75 C 0.800781 15.75 0 14.96875 0 14 C 0 13.03125 0.800781 12.25 1.785156 12.25 L 18.90625 12.25 L 13.023438 6.484375 C 12.328125 5.800781 12.328125 4.695312 13.023438 4.011719 C 13.722656 3.328125 14.851562 3.328125 15.550781 4.011719 L 24.476562 12.761719 C 25.171875 13.449219 25.171875 14.550781 24.476562 15.234375 Z M 24.476562 15.234375 "/>
</g>
</svg>
