<?xml version="1.0" encoding="UTF-8"?>
<svg xmlns="http://www.w3.org/2000/svg" xmlns:xlink="http://www.w3.org/1999/xlink" width="25px" height="29px" viewBox="0 0 25 28" version="1.1">
<g id="surface1">
<path style=" stroke:none;fill-rule:nonzero;fill:rgb(0%,0%,0%);fill-opacity:1;" d="M 24.949219 14 C 24.949219 14.96875 24.203125 15.75 23.214844 15.75 L 6.097656 15.75 L 11.980469 21.515625 C 12.679688 22.199219 12.679688 23.304688 11.980469 23.988281 C 11.628906 24.332031 11.171875 24.5 10.714844 24.5 C 10.257812 24.5 9.800781 24.328125 9.453125 23.988281 L 0.523438 15.238281 C -0.175781 14.554688 -0.175781 13.445312 0.523438 12.761719 L 9.453125 4.011719 C 10.148438 3.328125 11.28125 3.328125 11.976562 4.011719 C 12.675781 4.695312 12.675781 5.804688 11.976562 6.488281 L 6.097656 12.25 L 23.214844 12.25 C 24.203125 12.25 24.949219 13.03125 24.949219 14 Z M 24.949219 14 "/>
</g>
</svg>
